<svg xmlns="http://www.w3.org/2000/svg" viewBox="0 0 608.28 589.98"><title>Feature_03</title><circle cx="498.33" cy="278.38" r="11.07" fill="#00ecbc"/><circle cx="99.85" cy="278.38" r="11.07" fill="#00ecbc"/><circle cx="133.06" cy="311.59" r="11.07" fill="#00ecbc"/><circle cx="199.47" cy="311.59" r="11.07" fill="#00ecbc"/><circle cx="166.26" cy="344.79" r="11.07" fill="#00ecbc"/><circle cx="232.68" cy="344.79" r="11.07" fill="#00ecbc"/><circle cx="265.88" cy="378" r="11.07" fill="#00ecbc"/><circle cx="332.3" cy="378" r="11.07" fill="#00ecbc"/><circle cx="365.5" cy="344.79" r="11.07" fill="#00ecbc"/><circle cx="299.09" cy="411.21" r="11.07" fill="#00ecbc"/><circle cx="398.71" cy="311.59" r="11.07" fill="#00ecbc"/><circle cx="465.12" cy="311.59" r="11.07" fill="#00ecbc"/><circle cx="431.92" cy="344.79" r="11.07" fill="#00ecbc"/><path d="M504.28,353.87l104-59.41L501.38,233.77l106.88-61.06L304.14,0,0,172.71l106.88,61.06L0,294.46l106.88,61.07L0,416.22,304.14,590,608.28,416.22,501.4,355.53l.78-.45A10.42,10.42,0,0,0,504.28,353.87ZM304.14,25.45,563.55,172.76,479,221.07h0L304.15,321,44.73,172.76ZM123.18,250a10.93,10.93,0,0,0,17.54,3.14l25,14.3a11,11,0,1,0,11.57,11,10.81,10.81,0,0,0-1.46-5.19l114.34,65.33a10.77,10.77,0,0,0-2.19,6.27,11.07,11.07,0,1,0,22.14,0,9.41,9.41,0,0,0-.32-1.58L421.1,279.64a11,11,0,0,0,10.82,9.8A11.07,11.07,0,0,0,443,278.37a10.85,10.85,0,0,0-4.5-8.67l24.37-13.92a9.84,9.84,0,0,0,12.65-7.23l3.54-2,84.5,48L541.6,307.05a11,11,0,0,0-21.12,4.53,10.78,10.78,0,0,0,2.2,6.28L479,342.81h0l-70.7,40.4a10.77,10.77,0,0,0,1.48-5.22,11.07,11.07,0,1,0-11.54,11L373.2,403.27A10.73,10.73,0,0,0,355,413.7l-50.8,29-61.07-34.89a10.94,10.94,0,0,0-10.39-7.7,10.72,10.72,0,0,0-2.28.46l-24.36-13.91a10.89,10.89,0,0,0,4.5-8.68,11.07,11.07,0,0,0-11.07-11.07,11,11,0,0,0-10.81,9.82L77.38,313.18a10.66,10.66,0,0,0,.32-1.59,11.07,11.07,0,0,0-11.07-11.07,10.83,10.83,0,0,0-6.87,2.6l-15-8.59ZM563.54,416.28,304.13,564.49,44.73,416.28l84.49-48,174.92,99.93,174.91-99.93Z" fill="#00ecbc"/></svg>