<svg xmlns="http://www.w3.org/2000/svg" viewBox="0 0 392.32 472"><title>Feature_04</title><path d="M390.75,419.38,328.53,269.16a7.5,7.5,0,1,0-13.86,5.74l56.25,135.8-51.31-14.87a7.51,7.51,0,0,0-8.65,3.59l-25.77,46.79L224.83,300.5c69.66-13.44,122.45-74.86,122.45-148.38C347.28,68.79,279.49,1,196.16,1S45,68.79,45,152.12a150.33,150.33,0,0,0,29.9,90.13L1.57,419.38a7.5,7.5,0,0,0,9,10.07l60.53-17.54,30.4,55.21a7.51,7.51,0,0,0,6.57,3.88h.41a7.51,7.51,0,0,0,6.52-4.62L173.16,326a7.5,7.5,0,0,0-13.86-5.74L107.13,446.21,81.37,399.42a7.53,7.53,0,0,0-8.66-3.59L21.4,410.7,85.8,255.23a150.73,150.73,0,0,0,110.36,48c4.49,0,8.93-.21,13.33-.6L277.3,466.37a7.52,7.52,0,0,0,6.52,4.62h.42a7.49,7.49,0,0,0,6.56-3.88l30.4-55.21,60.54,17.54a7.5,7.5,0,0,0,9-10.07ZM60,152.12C60,77.06,121.11,16,196.16,16S332.28,77.06,332.28,152.12,271.22,288.24,196.16,288.24,60,227.18,60,152.12Z" fill="#00ecbc" stroke="#00ecbc" stroke-miterlimit="10" stroke-width="2"/><path d="M282.82,124a7.5,7.5,0,0,0-5.89-5.08l-50.47-8.47L202.81,65a7.5,7.5,0,0,0-13.3,0l-23.65,45.38-50.47,8.47a7.5,7.5,0,0,0-4.11,12.65l35.85,36.52-7.54,50.61a7.5,7.5,0,0,0,10.76,7.82l45.81-22.81L242,226.48a7.45,7.45,0,0,0,3.34.79,7.5,7.5,0,0,0,7.42-8.61l-7.54-50.61L281,131.53A7.5,7.5,0,0,0,282.82,124Zm-50.95,36.25a7.5,7.5,0,0,0-2.07,6.35l6,40.08-36.26-18.06a7.48,7.48,0,0,0-6.69,0l-36.27,18.06,6-40.08a7.46,7.46,0,0,0-2.07-6.35l-28.38-28.92,40-6.7a7.52,7.52,0,0,0,5.41-3.93l18.72-35.93,18.73,35.93a7.5,7.5,0,0,0,5.41,3.93l39.95,6.7-28.38,28.92Z" fill="#00ecbc" stroke="#00ecbc" stroke-miterlimit="10" stroke-width="2"/><path d="M309.77,159.68a7.51,7.51,0,0,0-8.42,6.45,106.12,106.12,0,1,1,0-28,7.5,7.5,0,1,0,14.87-2C308.28,76.2,256.67,31,196.16,31a121.12,121.12,0,0,0,0,242.24c60.51,0,112.12-45.2,120.06-105.14a7.5,7.5,0,0,0-6.45-8.42Z" fill="#00ecbc" stroke="#00ecbc" stroke-miterlimit="10" stroke-width="2"/></svg>