<svg xmlns="http://www.w3.org/2000/svg" viewBox="0 0 517 506.77"><title>Feature_02</title><path d="M425,268a7.45,7.45,0,0,0-7.45,7.45,9.46,9.46,0,0,1-18.92,0,7.45,7.45,0,0,0-14.9,0,24.36,24.36,0,0,0,48.72,0A7.44,7.44,0,0,0,425,268Z" fill="#00ecbc" stroke="#00ecbc" stroke-miterlimit="10" stroke-width="5"/><path d="M494.94,269.21l-21-6.71a8.79,8.79,0,0,1-5.66-5.74,135,135,0,0,0-19.83-39.21,143,143,0,0,0-13.24-15.63,184.88,184.88,0,0,0,4.56-42.2c-.31-19-4.11-30.12-11.6-34-4-2.11-16.31-8.54-82.78,21.89a24.43,24.43,0,0,0-4.41,2.62c-4.48-1.2-9.06-2.32-13.66-3.32l-1.69-.34a101.64,101.64,0,0,0,9.12-37.74,7.45,7.45,0,0,0-14.89-.67,86.68,86.68,0,0,1-56.72,77.52,216,216,0,0,0-60,0A86.76,86.76,0,1,1,310.74,65.17a7.45,7.45,0,0,0,13.31-6.7A101.71,101.71,0,1,0,179.21,190.41h0c-4.63,1.21-9.23,2.56-13.78,4.08a7.45,7.45,0,1,0,4.73,14.13,200,200,0,0,1,126,0,7.21,7.21,0,0,0,2.36.39,7.45,7.45,0,0,0,2.36-14.52c-4.54-1.52-9.14-2.87-13.77-4.08h0a101.22,101.22,0,0,0,30.93-30.24c2.06.4,4.1.82,6.1,1.26q4,.87,8,1.86c-.09.32-.17.64-.24,1-3.64,17.25-3.4,32.5.7,45.33a53.91,53.91,0,0,0,19.76,27.78A62.66,62.66,0,0,0,389.07,249c9.14,0,17.57-2,23.76-5.5,7-4,12.88-12.33,17.52-24.88q3.22,3.76,6.1,7.71a120.38,120.38,0,0,1,17.65,34.89,23.67,23.67,0,0,0,15.33,15.46l21,6.72A13.2,13.2,0,0,1,499.6,296v34.77a13.21,13.21,0,0,1-9.2,12.61l-33.79,10.82a23,23,0,0,0-12.88,10.46c-13.28,22.94-34.15,41.93-62,56.43a11.66,11.66,0,0,0-6.12,8.23l-10.83,57.3a3.34,3.34,0,0,1-3.28,2.73H326.27a3.35,3.35,0,0,1-3.29-2.73L317,455a11.7,11.7,0,0,0-13.32-9.41A311.73,311.73,0,0,1,257.25,449a297.49,297.49,0,0,1-34.15-1.93,11.8,11.8,0,0,0-12.91,9.47l-5.69,30.09a3.36,3.36,0,0,1-3.29,2.73H166a3.35,3.35,0,0,1-3.29-2.75L152.31,432.5a11.68,11.68,0,0,0-6-8.14C98.75,399,73.62,356.58,73.62,301.74c0-27.71,6.06-52.21,18-72.83,11.15-19.24,27.45-35.15,48.43-47.28a7.45,7.45,0,1,0-7.47-12.9c-40.67,23.53-65.21,59.83-72,105.94h0c-.71-.06-1.43-.12-2.15-.2a37.08,37.08,0,0,0-2.73-14.86c-4.32-10.75-13.2-18.51-22.62-19.76-7.42-1-14.49,2.15-19.39,8.63-7.11,9.4-5.95,16.83-3.73,21.41,3.75,7.74,13.4,13.21,29.41,16.64-.44.66-.92,1.33-1.45,2C28.51,300.38,17.36,303,10.13,303.25A7.83,7.83,0,0,0,2.5,311v0A7.8,7.8,0,0,0,10,318.85c.53,0,1.09,0,1.67,0,9.16,0,23.85-3.37,38-21.08A42.19,42.19,0,0,0,55.06,289c1.41.15,2.76.29,4,.41h0c-.25,4-.39,8.14-.39,12.31,0,31,7.4,58.69,22,82.23,13.45,21.7,32.71,39.46,57.26,52.83l10.13,52.61A18.27,18.27,0,0,0,166,504.27h35.19a18.27,18.27,0,0,0,17.93-14.86l5.15-27.21a312,312,0,0,0,33,1.71,327.83,327.83,0,0,0,45.66-3.18l5.42,28.68a18.28,18.28,0,0,0,17.94,14.86h35.18a18.28,18.28,0,0,0,17.94-14.86l10.53-55.79c29.77-15.74,52.21-36.42,66.71-61.48a8.13,8.13,0,0,1,4.53-3.73l33.78-10.82a28.06,28.06,0,0,0,19.56-26.8V296A28.06,28.06,0,0,0,494.94,269.21Zm-71.16-88.55c-2.87,24.52-10.56,45.5-18.29,49.88-8.79,5-29.07,5.94-44.3-5.2s-20.33-31.21-14.68-58h0a9,9,0,0,1,5.11-6.22c37.31-17.08,58.81-22.66,66.8-22.66a7.6,7.6,0,0,1,2.7.36C423.52,141.36,426.67,155.91,423.78,180.66ZM23.42,263.39c-.77-1.59,1-4.39,2.2-5.92,1.83-2.41,3.52-2.91,4.79-2.91a5.7,5.7,0,0,1,.75.06c3.43.45,8.23,4.22,10.77,10.55a22.45,22.45,0,0,1,1.56,7C33.17,270.06,25.16,267,23.42,263.39Z" fill="#00ecbc" stroke="#00ecbc" stroke-miterlimit="10" stroke-width="5"/><text transform="translate(196.82 147.45)" font-size="124.4" fill="#00ecbc" font-family="WorkSans-ExtraBold, Work Sans ExtraBold" font-weight="800">$</text></svg>