<svg xmlns="http://www.w3.org/2000/svg" viewBox="0 0 512 511.69"><title>Feature_01</title><path d="M74.66,85a32,32,0,0,0-32,32v85.33H64V117a10.67,10.67,0,0,1,10.66-10.67h256V85Z" fill="#00ecbc"/><path d="M74.66,405A10.67,10.67,0,0,1,64,394.36V287.69H42.66V394.36a32,32,0,0,0,32,32H181.33V405Z" fill="#00ecbc"/><path d="M338.21,432.54,79.15,173.48a10.67,10.67,0,0,0-15.08,0l-60.95,61a10.68,10.68,0,0,0,0,15.09l259.05,259a10.68,10.68,0,0,0,15.09,0l60.94-60.95A10.66,10.66,0,0,0,338.21,432.54Zm-68.5,53.4-244-244,45.86-45.87,244,244Z" fill="#00ecbc"/><path d="M469.33,405h-160v21.33H426.66v53.33a10.67,10.67,0,0,0,10.67,10.67h32a42.67,42.67,0,1,0,0-85.33Zm0,64H448V426.36h21.33a21.34,21.34,0,0,1,0,42.67Z" fill="#00ecbc"/><path d="M469.33,85H416v21.33h53.33a21.33,21.33,0,0,1,21.33,21.33v320H512v-320A42.67,42.67,0,0,0,469.33,85Z" fill="#00ecbc"/><rect x="164.04" y="314.36" width="45.26" height="21.33" transform="translate(-175.15 227.19) rotate(-45)" fill="#00ecbc"/><rect x="121.37" y="271.69" width="45.26" height="21.33" transform="translate(-157.48 184.53) rotate(-45)" fill="#00ecbc"/><rect x="206.68" y="357.03" width="45.26" height="21.33" transform="translate(-192.83 269.84) rotate(-45)" fill="#00ecbc"/><rect x="249.37" y="399.71" width="45.26" height="21.33" transform="translate(-210.52 312.53) rotate(-45)" fill="#00ecbc"/><rect x="78.68" y="229.03" width="45.26" height="21.33" transform="translate(-139.82 141.84) rotate(-45)" fill="#00ecbc"/><path d="M460.09,23.67,445.35,8.93a32.26,32.26,0,0,0-44.57,0l-162.2,162.2a10.65,10.65,0,0,0,0,15.08l44.23,44.24a10.68,10.68,0,0,0,15.09,0L460.09,68.25l0,0A31.51,31.51,0,0,0,460.09,23.67ZM445,53.15,290.36,207.82,261.2,178.67,415.87,24a10.42,10.42,0,0,1,14.4,0L445,38.74h0A10.18,10.18,0,0,1,445,53.15Z" fill="#00ecbc"/><rect x="224" y="234.36" width="160" height="21.33" fill="#00ecbc"/><rect x="405.33" y="234.36" width="21.33" height="21.33" fill="#00ecbc"/><rect x="448" y="234.36" width="21.33" height="21.33" fill="#00ecbc"/><path d="M286.93,212.79l-46,15.37,15.37-46.11L236,175.3l-22.13,66.36a10.71,10.71,0,0,0,13.45,13.52l66.36-22.12Z" fill="#00ecbc"/><rect x="390.27" y="36.79" width="21.33" height="62.56" transform="translate(69.3 303.44) rotate(-45)" fill="#00ecbc"/></svg>