<svg xmlns="http://www.w3.org/2000/svg" viewBox="0 0 512 491.48"><title>Feature_05</title><path d="M511,269.39a201.84,201.84,0,0,0-156.95-177V67a34,34,0,0,0-8.21-67h-72a34,34,0,0,0-8.2,67V92.47a200.77,200.77,0,0,0-98.48,54.17,203.06,203.06,0,0,0-17,19.27c-.25,0-.5,0-.76,0H78.17a10,10,0,0,0,0,20h58.41a200.74,200.74,0,0,0-17.74,38.44H10a10,10,0,0,0,0,20H113.19a203,203,0,0,0-5,38.44H64a10,10,0,0,0,0,20h44.54a203.56,203.56,0,0,0,6.25,38.44H50a10,10,0,0,0,0,20h71.17A202,202,0,0,0,290,490.5q9.9,1,19.82,1A202.56,202.56,0,0,0,420.1,458.9a10,10,0,0,0-10.92-16.76c-71.56,46.59-167.39,36.52-227.87-24-71-71-71-186.43,0-257.39s186.43-71,257.39,0c60.4,60.4,70.53,156.15,24.09,227.67a10,10,0,1,0,16.77,10.9A202.65,202.65,0,0,0,511,269.39ZM259.85,34a14,14,0,0,1,14-14h72a14,14,0,0,1,0,28h-72A14,14,0,0,1,259.85,34Zm25.8,55V68h48.41V89A203.62,203.62,0,0,0,285.65,89Z" fill="#00ecbc"/><path d="M445.78,415.24a10,10,0,1,0,7.07,2.93A10.06,10.06,0,0,0,445.78,415.24Z" fill="#00ecbc"/><path d="M310,134.35c-85.54,0-155.14,69.59-155.14,155.13S224.47,444.61,310,444.61,465.14,375,465.14,289.48,395.55,134.35,310,134.35Zm0,290.26c-74.52,0-135.14-60.62-135.14-135.13S235.49,154.35,310,154.35,445.14,215,445.14,289.48,384.52,424.61,310,424.61Z" fill="#00ecbc"/><path d="M373.26,212.08l-49.53,49.53a31,31,0,0,0-27.45,0l-22.17-22.17A10,10,0,1,0,260,253.59l22.17,22.16a31.07,31.07,0,1,0,55.74,0L386,227.68h0l1.46-1.46a10,10,0,1,0-14.15-14.14ZM310,300.55a11.07,11.07,0,1,1,11.07-11.07A11.08,11.08,0,0,1,310,300.55Z" fill="#00ecbc"/><path d="M416.93,279.6h-9.27a10,10,0,1,0,0,20h9.27a10,10,0,0,0,0-20Z" fill="#00ecbc"/><path d="M212.35,279.36h-9.26a10,10,0,0,0,0,20h9.26a10,10,0,1,0,0-20Z" fill="#00ecbc"/><path d="M310.13,201.82a10,10,0,0,0,10-10v-9.26a10,10,0,0,0-20,0v9.26A10,10,0,0,0,310.13,201.82Z" fill="#00ecbc"/><path d="M309.88,377.14a10,10,0,0,0-10,10v9.26a10,10,0,0,0,20,0v-9.26A10,10,0,0,0,309.88,377.14Z" fill="#00ecbc"/><path d="M10,341.18a10,10,0,1,0,7.07,17.07A10,10,0,0,0,10,341.18Z" fill="#00ecbc"/></svg>