<svg xmlns="http://www.w3.org/2000/svg" viewBox="0 0 23.9 23.93"><title>Insta_Icon</title><path d="M21.51,16.79a4.72,4.72,0,0,1-4.72,4.72H7.11a4.7,4.7,0,0,1-4.57-4.72V7.14A4.69,4.69,0,0,1,7.11,2.42h9.68a4.72,4.72,0,0,1,4.72,4.72h0ZM16.79,0H7.11A7.14,7.14,0,0,0,0,7.14v9.65a7.14,7.14,0,0,0,7.11,7.14h9.68a7.14,7.14,0,0,0,7.11-7.14V7.14A7.14,7.14,0,0,0,16.79,0" fill="#fff"/><path d="M12,15.73A3.78,3.78,0,1,1,15.73,12v0A3.75,3.75,0,0,1,12,15.73h0m0-9.95a6.05,6.05,0,1,0,6.2,6.2,6.19,6.19,0,0,0-6-6.2" fill="#fff"/><path d="M18.15,4.36a1.48,1.48,0,1,1-1.48,1.48h0a1.48,1.48,0,0,1,1.48-1.48" fill="#fff"/></svg>