<svg xmlns="http://www.w3.org/2000/svg" viewBox="0 0 26.5 21.61"><title>Twitter_Icon</title><path d="M23.8,5.41v.73A15.48,15.48,0,0,1,0,19.18H1.29A10.89,10.89,0,0,0,8.06,16.9,5.4,5.4,0,0,1,3,13.09H4a5.86,5.86,0,0,0,1.45,0A5.44,5.44,0,0,1,1.06,7.7h0a5.35,5.35,0,0,0,2.48.64A5.31,5.31,0,0,1,1.1,3.82,5.36,5.36,0,0,1,2,1.08a15.53,15.53,0,0,0,11.4,5.66,6.53,6.53,0,0,1,0-1.25,5.47,5.47,0,0,1,9.43-3.8,11,11,0,0,0,3-1.18,5.7,5.7,0,0,1-2.4,3,10.89,10.89,0,0,0,3.12-.87,10.47,10.47,0,0,1-2.7,2.81" fill="#fff"/></svg>