<svg xmlns="http://www.w3.org/2000/svg" viewBox="0 0 28.74 21.74"><title>YT_Icon</title><path d="M11,16.71V5.92l9.43,5.49Zm17.59-12a7.4,7.4,0,0,0-1.16-3.1A3.85,3.85,0,0,0,24.52.35C20.5,0,14.31,0,14.31,0h-3.4A46.49,46.49,0,0,0,4.33.31,3.86,3.86,0,0,0,1.47,1.59,6.89,6.89,0,0,0,.31,4.68,45.81,45.81,0,0,0,0,9.79v2.32a46.81,46.81,0,0,0,.31,5,7.49,7.49,0,0,0,1.16,3.1,4.53,4.53,0,0,0,3.17,1.51h9.67s6.07,0,10.09-.35a3.86,3.86,0,0,0,2.87-1.28A7.5,7.5,0,0,0,28.43,17a49.74,49.74,0,0,0,.31-5V9.67a50.53,50.53,0,0,0-.31-5.07" fill="#fff"/></svg>